<?xml version="1.0"?>
<svg xmlns="http://www.w3.org/2000/svg" width="26" height="26" viewBox="0 0 26 26">
    <path style="text-indent:0;text-align:start;line-height:normal;text-transform:none;block-progression:tb;-inkscape-font-specification:Bitstream Vera Sans" d="M 1 0 C 0.447 0 0 0.448 0 1 L 0 12 C 0 12.552 0.447 13 1 13 L 1 25 A 1.0001 1.0001 0 0 0 2 26 L 24 26 A 1.0001 1.0001 0 0 0 25 25 L 25 13 C 25.553 13 26 12.552 26 12 L 26 1 C 26 0.448 25.553 0 25 0 L 1 0 z M 13 6 L 18 13 L 23 13 L 23 24 L 16 24 L 16 19 C 16 17.343146 14.656854 16 13 16 C 11.343146 16 10 17.343146 10 19 L 10 24 L 3 24 L 3 13 L 8 13 L 13 6 z M 5 16 L 5 21 L 8 21 L 8 16 L 5 16 z M 18 16 L 18 21 L 21 21 L 21 16 L 18 16 z" overflow="visible" enable-background="accumulate" font-family="Bitstream Vera Sans"/>
</svg>
